<?xml version="1.0" encoding="UTF-8" standalone="no"?>
<!-- Created with Inkscape (http://www.inkscape.org/) -->

<svg
   width="210mm"
   height="210mm"
   viewBox="0 0 210 210"
   version="1.1"
   id="svg1"
   xml:space="preserve"
   xmlns="http://www.w3.org/2000/svg"
   xmlns:svg="http://www.w3.org/2000/svg"><defs
     id="defs1" /><g
     id="layer1"
     transform="matrix(1.211735,0,0,1.211735,-23.786622,-20.84924)"><g
       id="g4"
       transform="matrix(1.2788872,0,0,1.2788872,-25.233028,-31.968999)"><path
         id="path6"
         style="fill:#feffff;fill-opacity:1"
         d="m 59.190227,41.569727 c -6.734255,-0.0077 -6.728055,-0.06779 -6.93511,6.621317 -0.179909,5.812212 -0.152373,9.031008 -0.198413,13.622787 -0.06028,6.011367 -0.346689,8.68819 4.306724,8.851543 10.677368,0.374818 9.224184,-0.529936 9.210354,10.707953 -0.01228,9.973167 0.05504,5.950342 -0.03068,16.385893 -0.08817,10.73405 0.125911,7.8971 -5.46252,11.2475 -4.567872,2.73856 -6.234861,6.95524 -6.164801,9.76224 0.193852,7.76698 -0.219968,12.48057 0.02368,18.26131 0.203631,4.8314 -2.129648,2.9086 -5.962053,7.36929 -1.788729,2.08196 -2.879789,4.70636 -2.886489,7.28058 -0.01204,4.64307 3.228967,9.33435 8.297988,12.01081 2.146456,1.13333 8.427474,3.52189 10.02568,3.81252 0.235297,0.0428 1.027279,0.2262 1.760038,0.40783 4.771302,1.18265 12.761699,2.46192 18.652133,2.9862 4.033324,0.35899 10.883786,0.83573 12.70742,0.88435 h 3.34e-4 c 4.558138,0.12138 16.088918,-0.0187 19.574168,-0.23776 17.90114,-1.12526 32.35309,-4.25996 39.50815,-8.56976 2.40261,-1.44721 4.61804,-3.85963 5.76764,-6.28052 1.13202,-2.38388 1.45547,-3.80052 1.27351,-5.57656 -0.25288,-2.46825 -2.27474,-5.89586 -3.87555,-7.12952 -5.1945,-4.00315 -4.24724,-2.05829 -4.33874,-10.94172 -0.0239,-2.31773 0.13015,-6.05793 0.0413,-10.80366 -0.13708,-7.32338 0.88059,-9.4627 -4.64786,-12.2539 -6.69956,-3.38245 -6.45713,-2.43035 -6.48193,-6.20182 -0.0825,-12.531627 -0.22991,-12.511041 -0.10504,-24.469126 0.0787,-7.534952 -0.26293,-7.802398 7.78845,-7.998201 2.84294,-0.06914 3.92234,-1.596969 3.80252,-8.231629 -0.12987,-7.190557 0.14112,-9.394522 0.11772,-12.780783 -0.056,-8.090836 -0.15273,-8.590163 -8.41204,-8.536083 -10.48062,0.06862 -58.249818,0.04875 -87.35663,-0.201081 z m 44.938323,6.816396 c 0,0 27.40832,0.07693 42.85982,0.05169 1.09673,-0.0018 1.40502,0.279067 1.40323,1.53128 -0.01,6.665421 0.004,7.345416 0,14.75724 -3e-4,0.598293 -0.59766,1.314806 -1.19548,1.338536 -3.56361,0.100884 -7.12725,0.08515 -10.69261,0.127718 v 22.204222 22.203881 c 7.52536,2.63527 11.77637,5.85405 11.78538,7.93618 l 0.057,13.17628 0.057,13.1766 0.52287,0.19875 c 0.28756,0.10933 1.44071,0.8037 2.56236,1.54328 3.03814,2.00326 4.27336,3.778 4.00294,5.75097 -0.34559,2.52131 -2.74361,4.67194 -7.15153,6.41357 -3.56312,1.40783 -10.79112,3.3206 -16.24317,4.29872 -3.66628,0.65774 -12.83678,1.80093 -15.88502,1.98013 -4.27508,0.25131 -22.114932,0.23587 -25.108389,-0.0217 -4.107306,-0.35342 -10.068877,-1.04569 -12.093174,-1.40423 -2.838627,-0.50278 -3.039837,-0.53921 -4.611513,-0.83733 -9.554778,-1.81233 -16.5792,-4.16875 -19.398098,-6.50727 -1.878845,-1.55867 -2.740558,-2.9132 -2.736429,-4.30039 0.0056,-1.8655 2.087417,-4.26084 5.274445,-6.06843 l 1.689676,-0.95838 0.02534,-6.35388 c 0.01396,-3.4947 0.08373,-9.44377 0.155062,-13.22029 0.125956,-6.66874 0.14344,-6.89281 0.607576,-7.77612 0.262842,-0.50022 0.735119,-1.22134 1.04942,-1.60264 1.420629,-1.72348 4.713453,-3.58446 8.257639,-4.66687 l 1.996133,-0.60957 0.0023,-22.290257 0.0023,-22.290256 h -5.032014 c -5.451797,0 -5.771686,-0.05574 -6.633322,-1.151128 -0.415224,-0.52787 -0.427838,-0.755044 -0.427838,-7.594373 0,-7.94414 0.04685,-8.255565 1.319195,-8.787184 0.62511,-0.261188 6.312084,-0.293593 43.578781,-0.248766 z M 64.559709,54.0744 v 3.1656 3.165934 l 0.973723,0.07703 c 0.535478,0.04247 10.934842,0.07081 23.109918,0.06269 l 22.13653,-0.01501 0.0563,-3.227959 0.0567,-3.228292 H 87.726316 Z m 51.856761,0 v 3.161932 c 0,2.839044 0.0367,3.171474 0.35881,3.255637 0.57211,0.149507 15.65048,0.153615 21.21416,0.0057 l 5.07303,-0.135054 V 57.218658 54.0744 h -13.323 z m -39.086315,12.093174 -0.133721,2.183874 c -0.0735,1.201225 -0.13372,13.196446 -0.13372,26.656004 0,27.135058 0.08906,25.408308 -1.339202,26.005078 -2.190944,0.91543 -4.053407,-0.50894 -4.343739,-3.322 -0.06251,-0.60564 -0.194963,-1.10111 -0.294452,-1.10111 -0.09949,0 -1.005437,0.33716 -2.013139,0.7493 -1.985639,0.81211 -3.115459,1.61212 -3.599774,2.54869 -0.273968,0.52979 -0.273946,0.6626 -0.0017,1.18914 1.705392,3.29786 12.152529,5.96744 28.091912,7.17788 3.894278,0.29573 19.32545,0.23522 22.54903,-0.0884 1.57961,-0.15855 3.56263,-0.33698 4.40676,-0.39649 0.84413,-0.0595 2.13439,-0.19895 2.86715,-0.30979 0.73276,-0.11084 1.60891,-0.24279 1.94711,-0.29345 6.30994,-0.94536 12.18722,-2.547 14.77158,-4.02562 3.26398,-1.86745 3.0743,-3.62551 -0.58356,-5.4135 -1.03956,-0.50814 -2.14363,-0.98203 -2.45365,-1.05308 -0.54799,-0.12559 -0.56385,-0.1042 -0.56823,0.7643 -0.0184,3.65936 -4.51037,5.35596 -5.72096,2.16087 -0.15074,-0.39784 -0.21842,-8.78314 -0.21842,-27.004481 V 66.167574 h -2.02581 -2.02548 l -0.084,3.330666 c -0.0505,2.003465 -0.10129,2.826946 -0.2601,3.472724 l 0.096,-0.0013 c -0.73389,2.376086 -2.25148,4.132481 -4.41843,5.11338 -0.83257,0.376875 -1.39181,0.462188 -3.0679,0.468188 -1.84406,0.0066 -2.17014,-0.05126 -3.24963,-0.576564 -2.11146,-1.027484 -3.48864,-2.575659 -4.24403,-4.771244 l 0.10771,-0.0017 c -0.35634,-1.133317 -0.50554,-2.48527 -0.50554,-4.301055 V 66.167574 H 94.106203 Z m 39.053965,0 0.0674,2.648393 c 0.0636,2.495374 0.0971,2.680778 0.5799,3.199614 0.85846,0.922621 1.47568,1.075467 2.54202,0.629919 1.20398,-0.503052 1.35254,-0.926883 1.35254,-3.859211 v -2.618715 h -2.27091 z m -12.77811,17.333272 c 2.73151,0.01155 7.76227,-0.09893 8.97692,3.163266 0.57813,1.758531 0.49652,4.253111 0.44485,6.35421 -0.13688,5.565358 -0.24331,6.205949 -1.25184,7.534348 -0.48126,0.63391 -1.61339,1.36293 -2.73809,1.76337 -0.28184,0.10035 -2.91064,0.24905 -5.84167,0.33047 -4.509924,0.12528 -5.483662,0.2081 -6.334207,0.53788 -1.384023,0.53663 -2.854467,1.91365 -3.545085,3.32 -0.528603,1.07645 -0.579633,1.39178 -0.644925,3.98726 l -0.07103,2.81846 -2.286248,-10e-4 c -1.870196,-6.2e-4 -2.400225,-0.0702 -2.9135,-0.38315 -2.58392,-1.5757 -3.922632,-5.94169 -3.376685,-11.01241 0.1777,-3.048208 1.380489,-5.291529 3.418702,-6.544954 1.00231,-0.616383 1.507843,-0.47553 3.43204,-0.497199 2.359624,-0.02657 5.218756,-0.01801 5.218756,-0.01801 l 8.343012,0.01267 c 0.0543,-0.689056 0.088,-1.356036 0.0917,-2.052822 h -5.431843 -5.431841 v -2.36528 c 0,-1.938636 0.07155,-2.502629 0.396158,-3.125918 0.807057,-1.549638 2.16186,-2.599394 4.318062,-3.346006 1.192679,-0.412979 1.740484,-0.462904 5.226764,-0.47519 z m -5.351146,3.452382 c -0.38354,-0.05835 -0.759197,0.04372 -1.051421,0.31746 -0.907595,0.85018 -0.856123,2.242029 0.102375,2.762106 0.798715,0.433378 1.161539,0.392903 1.877751,-0.209751 0.769095,-0.647147 0.831881,-1.472399 0.169401,-2.225224 -0.323298,-0.367385 -0.714566,-0.586238 -1.098106,-0.644591 z m 16.766376,7.29492 h 1.96512 c 1.56499,0 2.14278,0.08586 2.8368,0.421835 2.61823,1.267463 4.03759,4.779677 3.88823,9.621517 -0.12357,4.00561 -1.20469,6.74854 -3.0849,7.82647 -0.8221,0.47131 -0.88542,0.47524 -8.97526,0.53488 l -8.1476,0.06 v 1.01608 1.01574 h 5.32914 5.32913 v 2.36528 c 0,2.7373 -0.23905,3.41633 -1.65166,4.69254 -2.18544,1.97441 -5.71625,2.64996 -11.26118,2.1542 v -3.4e-4 c -2.747629,-0.24566 -4.937557,-1.226 -5.888021,-2.63639 -0.456902,-0.67799 -0.466003,-0.80087 -0.457183,-6.24683 0.0095,-5.86642 0.07971,-6.40112 1.017074,-7.76911 0.538558,-0.78597 1.78898,-1.72361 2.717088,-2.03715 0.372156,-0.12572 3.050192,-0.27649 6.095442,-0.34347 5.20968,-0.11458 5.47277,-0.13993 6.44058,-0.61625 1.34819,-0.66354 2.5021,-1.85556 3.16059,-3.26497 0.48561,-1.03939 0.54823,-1.445541 0.61358,-3.975924 z m -5.40249,23.065902 c -1.09672,-0.054 -2.08337,1.19688 -1.61598,2.32526 0.43182,1.04252 1.63736,1.33828 2.54468,0.62459 0.39929,-0.31408 0.53988,-0.61144 0.53988,-1.14079 0,-0.94568 -0.26526,-1.39912 -0.99573,-1.70169 -0.15724,-0.0651 -0.31618,-0.0996 -0.47285,-0.10737 z m 34.17634,10.33914 c -2.56177,1.40147 -6.03163,2.65155 -8.83653,3.12058 -0.004,4.57841 0.18312,7.5417 0.0497,10.73563 3.97918,-1.02861 6.05703,-1.77911 8.5671,-3.51241 0.0249,-3.84456 0.16443,-6.97295 0.21975,-10.3438 z m -79.133006,0.48119 c 0.106728,3.93694 -0.08326,6.76988 0.07336,10.51354 3.829507,2.49738 9.29615,4.1136 13.498404,4.17901 0.08923,-4.29818 0.04276,-6.55627 0.306122,-10.37149 -6.019216,-0.79834 -9.687538,-2.01595 -13.877888,-4.32106 z m 65.077386,4.10131 c -6.07103,1.4196 -13.51375,1.90301 -20.12639,1.95778 -0.20566,4.90666 -0.11505,6.87526 -0.17207,10.73563 8.43379,0.15925 15.45659,-0.60046 20.29846,-2.52134 0,0 -0.0872,-4.74926 0,-10.17207 z m -45.934057,1.03341 c -0.211774,5.04584 -0.218783,7.47336 -0.327798,10.44585 7.246577,1.10638 12.506316,1.50502 19.940645,1.34487 0.12162,-4.91782 0.15276,-7.63643 0.074,-10.85268 -6.624815,0.34041 -12.492734,0.20477 -19.686877,-0.93804 z m 59.537837,10.40517 c -5.85035,2.53776 -8.10862,3.09509 -14.03862,4.2447 -0.15082,5.79675 0.0884,6.4957 0.028,10.21042 4.78213,-0.70413 9.6547,-1.37934 13.7435,-4.01895 z m -78.783874,0.31312 c -0.052,0.0135 -0.08604,0.0545 -0.113379,0.12572 -0.119184,3.28587 -0.02639,6.58145 0.01134,9.86995 2.354583,1.21269 4.9335,2.05126 7.532349,2.55135 l 0.153728,-9.79892 c -5.976666,-1.59469 -7.220026,-2.84281 -7.584036,-2.7481 z m 12.701418,3.95258 0.109377,10.36048 c 6.59016,1.03967 13.162285,2.08127 19.846611,1.9838 v -10.24844 c -6.69809,-0.26033 -13.387593,-0.69794 -19.955988,-2.09584 z m 47.005146,0.59191 c -8.79805,0.96533 -11.36788,1.55343 -21.72769,1.15446 -0.24675,3.40305 -0.18475,7.12454 -0.18475,10.54055 5.96514,0.40085 17.14694,-0.0513 21.8771,-1.22782 z" /></g></g></svg>
