<?xml version="1.0" encoding="UTF-8" standalone="no"?>
<!-- Created with Inkscape (http://www.inkscape.org/) -->

<svg
   width="210mm"
   height="210mm"
   viewBox="0 0 210 210"
   version="1.1"
   id="svg1"
   xml:space="preserve"
   sodipodi:docname="python_in_a_well5.svg"
   inkscape:version="1.3.2 (9e3d6414e7, 2024-01-14, custom)"
   xmlns:inkscape="http://www.inkscape.org/namespaces/inkscape"
   xmlns:sodipodi="http://sodipodi.sourceforge.net/DTD/sodipodi-0.dtd"
   xmlns="http://www.w3.org/2000/svg"
   xmlns:svg="http://www.w3.org/2000/svg"><sodipodi:namedview
     id="namedview1"
     pagecolor="#505050"
     bordercolor="#eeeeee"
     borderopacity="1"
     inkscape:showpageshadow="0"
     inkscape:pageopacity="0"
     inkscape:pagecheckerboard="0"
     inkscape:deskcolor="#d1d1d1"
     inkscape:document-units="mm"
     inkscape:zoom="0.53168651"
     inkscape:cx="396.85039"
     inkscape:cy="396.85039"
     inkscape:window-width="2560"
     inkscape:window-height="1376"
     inkscape:window-x="1920"
     inkscape:window-y="27"
     inkscape:window-maximized="1"
     inkscape:current-layer="svg1" /><defs
     id="defs1" /><g
     id="layer1"
     transform="matrix(1.211735,0,0,1.211735,-23.786622,-20.84924)"><g
       id="g4"
       transform="matrix(1.2788872,0,0,1.2788872,-25.233028,-31.968999)"><path
         style="fill:#9cd1fa;fill-opacity:1"
         d="m 96.534675,171.78193 c -1.823389,-0.0486 -8.674555,-0.52532 -12.708004,-0.88432 -5.89044,-0.52428 -13.880764,-1.80353 -18.652071,-2.98618 -0.73276,-0.18163 -1.524806,-0.36524 -1.760103,-0.40803 -1.598208,-0.29063 -7.879088,-2.67904 -10.025546,-3.81238 -5.069026,-2.67646 -8.310206,-7.36779 -8.298167,-12.01087 0.0067,-2.57422 1.097826,-5.19871 2.886556,-7.28068 3.832409,-4.46069 6.165635,-2.53784 5.962004,-7.36924 -0.243644,-5.78075 0.170382,-10.49443 -0.02347,-18.26141 -0.07006,-2.80701 1.596973,-7.0235 6.164849,-9.76206 5.588437,-3.35041 5.374316,-0.51353 5.46249,-11.247594 0.08572,-10.435562 0.01843,-6.412806 0.03071,-16.385983 0.01383,-11.237901 1.466806,-10.333051 -9.210572,-10.707869 -4.653418,-0.163353 -4.366924,-2.840226 -4.306649,-8.851599 0.04604,-4.591784 0.01845,-7.81044 0.198359,-13.622657 0.207055,-6.689114 0.200974,-6.628944 6.935235,-6.621248 29.106842,0.24983 76.875934,0.269658 87.356564,0.201033 8.25932,-0.05408 8.35602,0.445178 8.41202,8.536023 0.0234,3.386264 -0.24754,5.590314 -0.11767,12.780878 0.11982,6.634666 -0.95967,8.162497 -3.80261,8.231635 -8.05139,0.195803 -7.70977,0.463041 -7.78846,7.998001 -0.12487,11.958096 0.0226,11.937708 0.10506,24.46935 0.0248,3.77147 -0.21745,2.81913 6.48212,6.20158 5.52846,2.7912 4.51067,4.93069 4.64775,12.25408 0.0888,4.74573 -0.0653,8.48592 -0.0414,10.80365 0.0915,8.88344 -0.85567,6.9384 4.33883,10.94155 1.60081,1.23367 3.62269,4.66141 3.87557,7.12966 0.18196,1.77605 -0.14159,3.19274 -1.27361,5.57662 -1.1496,2.42089 -3.36488,4.83316 -5.7675,6.28037 -7.15506,4.30981 -21.60706,7.44467 -39.50822,8.56993 -3.48532,0.21909 -15.01647,0.35915 -19.574443,0.23776 z M 111.28014,73.203254 c 0.75539,2.195587 2.13256,3.743872 4.24402,4.771357 1.07949,0.525307 1.40547,0.583139 3.24954,0.576507 1.67609,-0.006 2.23525,-0.09137 3.06782,-0.468245 2.16695,-0.9809 3.68451,-2.73708 4.41841,-5.113168 z m 6.23132,-0.778805 2.26754,0.06857 c -0.70952,0.32328 -1.75315,0.291719 -2.26754,-0.06857 z"
         id="path6" /><rect
         style="fill:#60adf3;fill-opacity:1;stroke-width:0.206885"
         id="rect6"
         width="82.783577"
         height="10.65194"
         x="62.727333"
         y="51.213932" /><path
         style="fill:#60adf3;fill-opacity:1;stroke-width:0.206886"
         d="m 63.116442,124.41563 -0.194557,30.73984 18.774654,7.78224 42.121381,-0.68094 23.8331,-7.49041 -1.55644,-29.1834 -35.02008,5.25301 -30.642576,-1.65372 z"
         id="path7" /><path
         style="fill:#05294b;fill-opacity:1"
         d="m 91.103028,165.05346 c -4.10731,-0.35342 -10.068802,-1.04563 -12.093101,-1.40417 -2.83863,-0.50278 -3.040098,-0.53936 -4.611775,-0.83748 -9.554788,-1.81233 -16.578922,-4.16865 -19.397823,-6.50718 -1.878847,-1.55867 -2.740828,-2.91316 -2.736699,-4.30035 0.0056,-1.8655 2.087536,-4.26084 5.274567,-6.06843 l 1.689632,-0.9583 0.02539,-6.35401 c 0.01396,-3.4947 0.08375,-9.44389 0.155079,-13.22042 0.125956,-6.66874 0.143448,-6.89261 0.607585,-7.77592 0.262842,-0.50022 0.735051,-1.22147 1.049353,-1.60277 1.42063,-1.72348 4.713525,-3.58446 8.257715,-4.66687 l 1.996186,-0.60964 0.0023,-22.29025 0.0022,-22.29025 h -5.03189 c -5.451802,0 -5.77154,-0.05548 -6.633177,-1.150869 -0.415224,-0.527871 -0.428034,-0.755152 -0.428034,-7.594488 0,-7.944148 0.04673,-8.25546 1.31908,-8.78708 0.625111,-0.261188 6.312073,-0.29366 43.578804,-0.248833 0,0 27.40835,0.0768 42.85987,0.05156 1.09673,-0.0018 1.40504,0.279024 1.40325,1.531238 -0.01,6.665428 0.004,7.345403 0,14.757235 -3e-4,0.598293 -0.59772,1.315029 -1.19554,1.338759 -3.56362,0.100884 -7.12724,0.08511 -10.6926,0.12768 v 22.204113 22.204115 c 7.52537,2.63527 11.77664,5.85373 11.78565,7.93586 l 0.057,13.17646 0.057,13.17645 0.52284,0.19879 c 0.28756,0.10933 1.44055,0.80389 2.5622,1.54347 3.03814,2.00326 4.27336,3.77782 4.00294,5.75079 -0.34559,2.52131 -2.74369,4.67193 -7.15161,6.41356 -3.56312,1.40783 -10.79086,3.32073 -16.24291,4.29885 -3.66628,0.65774 -12.83675,1.80081 -15.885,1.98001 -4.27508,0.25131 -22.115099,0.23595 -25.108559,-0.0216 z m 6.113824,-15.0177 c -6.698097,-0.26033 -13.387808,-0.69784 -19.95621,-2.09574 l 0.10954,10.36045 c 6.590167,1.03967 13.162337,2.08111 19.84667,1.98364 z m 27.013688,8.96319 0.0355,-10.4672 c -8.79806,0.96533 -11.36792,1.55356 -21.72774,1.15459 -0.24675,3.40305 -0.18483,7.12439 -0.18483,10.54041 5.96514,0.40085 17.14688,-0.0513 21.87704,-1.2278 z m 19.1128,-15.32466 c -5.85035,2.53777 -8.10859,3.09519 -14.0386,4.2448 0.0959,5.70203 0.26741,6.55711 0.36906,10.15025 4.742,-1.02525 9.81519,-2.18227 13.66315,-3.57754 0.16995,-3.78688 0.0284,-8.33255 0.006,-10.81751 z m -71.199834,3.06128 c -6.830482,-1.82251 -7.478889,-3.19229 -7.697595,-2.62235 -0.119184,3.28587 -0.02642,6.58142 0.01131,9.86992 2.354585,1.21269 4.933716,2.05121 7.532567,2.55131 z m 57.595954,-4.32793 c 0,0 -0.0872,-4.74915 0,-10.17197 -6.07103,1.4196 -13.51385,1.90314 -20.1265,1.95791 -0.20566,4.90666 -0.11507,6.87517 -0.17209,10.73555 8.4338,0.15925 15.45672,-0.60061 20.29859,-2.52149 z m -26.24729,-8.20042 c -6.624826,0.34041 -12.492654,0.20468 -19.686804,-0.93813 -0.211775,5.04584 -0.218687,7.47337 -0.327702,10.44586 7.246584,1.10638 12.506415,1.50501 19.940756,1.34486 0.12162,-4.91783 0.15253,-7.63634 0.0738,-10.85259 z m -24.952045,-1.7519 c -6.019222,-0.79834 -9.68759,-2.01587 -13.877945,-4.32098 0.106729,3.93694 -0.0834,6.76997 0.07322,10.51364 3.829511,2.49738 9.296121,4.11345 13.498379,4.17886 0.08923,-4.29818 0.04298,-6.5563 0.306346,-10.37152 z m 65.035105,5.54168 c 0.0249,-3.84457 0.16461,-6.97293 0.21993,-10.34379 -2.56178,1.40147 -6.03181,2.65138 -8.83672,3.12041 -0.004,4.57842 0.18314,7.54183 0.0497,10.73576 3.97918,-1.02861 6.05697,-1.77908 8.56704,-3.51238 z m -27.46365,-9.83088 c 1.57961,-0.15855 3.56268,-0.33697 4.40681,-0.39648 0.84413,-0.0595 2.13431,-0.19888 2.86707,-0.30972 0.73276,-0.11084 1.609,-0.24299 1.9472,-0.29365 6.30994,-0.94536 12.18711,-2.54707 14.77148,-4.02569 3.26398,-1.86746 3.07457,-3.62526 -0.5833,-5.41325 -1.03956,-0.50814 -2.14376,-0.98203 -2.45378,-1.05308 -0.54799,-0.12559 -0.56378,-0.10435 -0.56816,0.76415 -0.0184,3.65936 -4.51035,5.35614 -5.72094,2.16104 -0.15074,-0.39784 -0.21862,-8.78316 -0.21862,-27.004515 V 66.16742 h -2.02562 -2.02561 l -0.0839,3.330727 c -0.0772,3.063707 -0.1269,3.423981 -0.62061,4.49395 -0.71603,1.551804 -1.93681,2.834191 -3.48211,3.657827 -1.12059,0.597265 -1.49993,0.68739 -3.22868,0.767067 -2.43238,0.112108 -3.77563,-0.325372 -5.35273,-1.743324 -2.19239,-1.971141 -2.85768,-3.780784 -2.85768,-7.773033 V 66.16742 H 94.10621 77.329997 l -0.133632,2.184048 c -0.0735,1.201226 -0.133632,13.196423 -0.133632,26.655994 0,27.135088 0.08894,25.408228 -1.339321,26.004998 -2.190946,0.91543 -4.053145,-0.50873 -4.343478,-3.32179 -0.06251,-0.60564 -0.195052,-1.10117 -0.294541,-1.10117 -0.09949,0 -1.005375,0.33721 -2.013078,0.74935 -1.985641,0.81211 -3.115486,1.61202 -3.599802,2.54859 -0.273968,0.52979 -0.274179,0.66271 -0.0019,1.18925 1.705394,3.29786 12.152625,5.96717 28.092024,7.17761 3.894282,0.29573 19.325353,0.23539 22.548933,-0.0882 z m -14.86264,-4.2096 c -2.747635,-0.24566 -4.937487,-1.22631 -5.887952,-2.6367 -0.456903,-0.678 -0.465879,-0.80068 -0.457059,-6.24664 0.0095,-5.86643 0.07949,-6.40119 1.016854,-7.76918 0.538559,-0.78597 1.789052,-1.72343 2.717161,-2.03697 0.372157,-0.12572 3.050196,-0.27673 6.095446,-0.34371 5.20969,-0.11458 5.47288,-0.13976 6.44069,-0.61608 1.3482,-0.66355 2.5021,-1.85555 3.16059,-3.26496 0.48561,-1.03939 0.5483,-1.445576 0.61365,-3.975962 l 0.0728,-2.818307 h 1.96531 c 1.56499,0 2.14284,0.08594 2.83687,0.421912 2.61823,1.267464 4.03757,4.779671 3.88821,9.621517 -0.12357,4.00561 -1.20478,6.7486 -3.085,7.82653 -0.8221,0.47131 -0.88557,0.47509 -8.97542,0.53473 l -8.14748,0.0601 v 1.01601 1.01601 h 5.32917 5.32916 v 2.3653 c 0,2.73731 -0.23893,3.41616 -1.65154,4.69237 -2.18544,1.97441 -5.7165,2.64982 -11.26143,2.15406 z m 9.29839,-3.69247 c 0.39929,-0.31408 0.54006,-0.61144 0.54006,-1.1408 0,-0.94568 -0.26548,-1.39934 -0.99595,-1.70191 -1.25797,-0.52107 -2.623,0.92829 -2.08884,2.21787 0.43182,1.04252 1.63741,1.33854 2.54473,0.62484 z m -23.146274,-7.33819 c -2.583923,-1.5757 -3.922598,-5.94151 -3.37665,-11.01224 0.1777,-3.048211 1.380594,-5.291574 3.418809,-6.545 1.002311,-0.616384 1.507751,-0.475445 3.43195,-0.497114 2.359626,-0.02657 5.21883,-0.01807 5.21883,-0.01807 l 8.342885,0.01263 c 0.0543,-0.689057 0.088,-1.356053 0.0917,-2.05284 h -5.431807 -5.431647 v -2.365295 c 0,-1.938638 0.07144,-2.50247 0.396052,-3.12576 0.807057,-1.54964 2.162004,-2.599598 4.318208,-3.346211 1.19268,-0.412979 1.740404,-0.46276 5.226684,-0.475046 2.73152,0.01155 7.76225,-0.09892 8.9769,3.163278 0.57813,1.758533 0.49635,4.252901 0.44468,6.354002 -0.13688,5.565363 -0.24333,6.206064 -1.25186,7.534466 -0.48126,0.63391 -1.61337,1.36306 -2.73807,1.7635 -0.28184,0.10035 -2.91055,0.24906 -5.84159,0.33048 -4.509924,0.12528 -5.483668,0.20794 -6.334214,0.53772 -1.384025,0.53663 -2.854542,1.91383 -3.545161,3.32018 -0.528603,1.07645 -0.57959,1.39168 -0.644882,3.98716 l -0.0709,2.81831 -2.286233,-7.7e-4 c -1.870198,-6.2e-4 -2.400412,-0.0704 -2.913687,-0.38339 z M 99.183531,89.822982 c 0.769095,-0.647148 0.831939,-1.472389 0.169455,-2.225215 -0.646598,-0.734771 -1.565236,-0.874536 -2.149684,-0.32706 -0.907596,0.850181 -0.855892,2.241999 0.102607,2.762076 0.798716,0.433379 1.161409,0.392853 1.877622,-0.209801 z M 119.57335,72.645558 c 1.20398,-0.503053 1.3525,-0.926832 1.3525,-3.859163 V 66.16742 h -2.27094 -2.27093 l 0.0675,2.6487 c 0.0636,2.495376 0.0972,2.68058 0.57995,3.199417 0.85846,0.922621 1.47555,1.075569 2.54189,0.630021 z m -8.73696,-15.342995 0.0564,-3.228243 H 87.726264 64.559697 v 3.16577 3.165771 l 0.973597,0.07722 c 0.535478,0.04247 10.935032,0.07059 23.11012,0.06247 l 22.136526,-0.01475 z m 27.15303,3.194978 5.07295,-0.13486 V 57.2185 54.07432 h -13.32291 -13.3229 v 3.161972 c 0,2.839047 0.0366,3.171545 0.35869,3.255708 0.57211,0.149508 15.65049,0.153447 21.21417,0.0055 z"
         id="path4" /></g></g></svg>
